<svg xmlns="http://www.w3.org/2000/svg" viewBox="0 0 200 200" width="200" height="200">
    <!-- Medical Cross Background -->
    <rect x="85" y="40" width="30" height="120" rx="5" ry="5" fill="#3498db" />
    <rect x="40" y="85" width="120" height="30" rx="5" ry="5" fill="#3498db" />
    
    <!-- Circular Border -->
    <circle cx="100" cy="100" r="95" fill="none" stroke="#3498db" stroke-width="5" />
    
    <!-- Stethoscope -->
    <path d="M70,60 C50,80 50,120 70,140 C80,150 90,150 100,140 C110,130 120,130 130,140 C140,150 150,150 160,140" 
          fill="none" stroke="#2ecc71" stroke-width="5" stroke-linecap="round" />
    
    <!-- Stethoscope Head -->
    <circle cx="160" cy="140" r="10" fill="#2ecc71" />
    
    <!-- Pulse Line -->
    <path d="M40,100 L60,100 L70,80 L80,120 L90,90 L100,110 L110,100 L140,100" 
          fill="none" stroke="#e74c3c" stroke-width="3" stroke-linecap="round" />
</svg>